<svg xmlns="http://www.w3.org/2000/svg" xmlns:xlink="http://www.w3.org/1999/xlink" width="2000" zoomAndPan="magnify" viewBox="0 0 1500 1499.999933" height="2000" preserveAspectRatio="xMidYMid meet" version="1.0"><defs><clipPath id="90ec9426e8"><path d="M 514.433594 492.1875 L 814.433594 492.1875 L 814.433594 582.1875 L 514.433594 582.1875 Z M 514.433594 492.1875 " clip-rule="nonzero"></path></clipPath><clipPath id="9cd65dcdcc"><path d="M 0.433594 0.1875 L 300.433594 0.1875 L 300.433594 90.1875 L 0.433594 90.1875 Z M 0.433594 0.1875 " clip-rule="nonzero"></path></clipPath><clipPath id="8ef965ce34"><rect x="0" width="301" y="0" height="91"></rect></clipPath><clipPath id="4c9099bd90"><path d="M 514.433594 492.1875 L 604.433594 492.1875 L 604.433594 867.1875 L 514.433594 867.1875 Z M 514.433594 492.1875 " clip-rule="nonzero"></path></clipPath><clipPath id="860aa55a77"><path d="M 0.433594 0.1875 L 90.433594 0.1875 L 90.433594 375.1875 L 0.433594 375.1875 Z M 0.433594 0.1875 " clip-rule="nonzero"></path></clipPath><clipPath id="fa86ff14de"><rect x="0" width="91" y="0" height="376"></rect></clipPath><clipPath id="4b38998edc"><path d="M 514.433594 777.1875 L 814.433594 777.1875 L 814.433594 867.1875 L 514.433594 867.1875 Z M 514.433594 777.1875 " clip-rule="nonzero"></path></clipPath><clipPath id="d31845f468"><path d="M 0.433594 0.1875 L 300.433594 0.1875 L 300.433594 90.1875 L 0.433594 90.1875 Z M 0.433594 0.1875 " clip-rule="nonzero"></path></clipPath><clipPath id="4fe77f5d5c"><rect x="0" width="301" y="0" height="91"></rect></clipPath><clipPath id="f76d62f91e"><path d="M 685.566406 917.8125 L 985.566406 917.8125 L 985.566406 1007.8125 L 685.566406 1007.8125 Z M 685.566406 917.8125 " clip-rule="nonzero"></path></clipPath><clipPath id="dbea0f5764"><path d="M 0.566406 0.8125 L 300.566406 0.8125 L 300.566406 90.8125 L 0.566406 90.8125 Z M 0.566406 0.8125 " clip-rule="nonzero"></path></clipPath><clipPath id="875711ac2a"><rect x="0" width="301" y="0" height="91"></rect></clipPath><clipPath id="2ccffb92d8"><path d="M 895.566406 632.8125 L 985.566406 632.8125 L 985.566406 1007.8125 L 895.566406 1007.8125 Z M 895.566406 632.8125 " clip-rule="nonzero"></path></clipPath><clipPath id="c0d7d40d88"><path d="M 0.566406 0.8125 L 90.566406 0.8125 L 90.566406 375.8125 L 0.566406 375.8125 Z M 0.566406 0.8125 " clip-rule="nonzero"></path></clipPath><clipPath id="b282865bac"><rect x="0" width="91" y="0" height="376"></rect></clipPath><clipPath id="1da6d8926a"><path d="M 685.566406 632.8125 L 985.566406 632.8125 L 985.566406 722.8125 L 685.566406 722.8125 Z M 685.566406 632.8125 " clip-rule="nonzero"></path></clipPath><clipPath id="0cc4521cca"><path d="M 0.566406 0.8125 L 300.566406 0.8125 L 300.566406 90.8125 L 0.566406 90.8125 Z M 0.566406 0.8125 " clip-rule="nonzero"></path></clipPath><clipPath id="3bf8ab641d"><rect x="0" width="301" y="0" height="91"></rect></clipPath></defs><g clip-path="url(#90ec9426e8)"><g transform="matrix(1, 0, 0, 1, 514, 492)"><g clip-path="url(#8ef965ce34)"><g clip-path="url(#9cd65dcdcc)"><path fill="#ffffff" d="M 0.433594 0.1875 L 300.316406 0.1875 L 300.316406 90.1875 L 0.433594 90.1875 Z M 0.433594 0.1875 " fill-opacity="1" fill-rule="nonzero"></path></g></g></g></g><g clip-path="url(#4c9099bd90)"><g transform="matrix(1, 0, 0, 1, 514, 492)"><g clip-path="url(#fa86ff14de)"><g clip-path="url(#860aa55a77)"><path fill="#ffffff" d="M 0.433594 375.1875 L 0.433594 0.0703125 L 90.433594 0.0703125 L 90.433594 375.1875 Z M 0.433594 375.1875 " fill-opacity="1" fill-rule="nonzero"></path></g></g></g></g><g clip-path="url(#4b38998edc)"><g transform="matrix(1, 0, 0, 1, 514, 777)"><g clip-path="url(#4fe77f5d5c)"><g clip-path="url(#d31845f468)"><path fill="#ffffff" d="M 300.433594 90.1875 L 0.550781 90.1875 L 0.550781 0.1875 L 300.433594 0.1875 Z M 300.433594 90.1875 " fill-opacity="1" fill-rule="nonzero"></path></g></g></g></g><g clip-path="url(#f76d62f91e)"><g transform="matrix(1, 0, 0, 1, 685, 917)"><g clip-path="url(#875711ac2a)"><g clip-path="url(#dbea0f5764)"><path fill="#ffffff" d="M 300.566406 90.8125 L 0.683594 90.8125 L 0.683594 0.8125 L 300.566406 0.8125 Z M 300.566406 90.8125 " fill-opacity="1" fill-rule="nonzero"></path></g></g></g></g><g clip-path="url(#2ccffb92d8)"><g transform="matrix(1, 0, 0, 1, 895, 632)"><g clip-path="url(#b282865bac)"><g clip-path="url(#c0d7d40d88)"><path fill="#ffffff" d="M 90.566406 0.8125 L 90.566406 375.929688 L 0.566406 375.929688 L 0.566406 0.8125 Z M 90.566406 0.8125 " fill-opacity="1" fill-rule="nonzero"></path></g></g></g></g><g clip-path="url(#1da6d8926a)"><g transform="matrix(1, 0, 0, 1, 685, 632)"><g clip-path="url(#3bf8ab641d)"><g clip-path="url(#0cc4521cca)"><path fill="#ffffff" d="M 0.566406 0.8125 L 300.449219 0.8125 L 300.449219 90.8125 L 0.566406 90.8125 Z M 0.566406 0.8125 " fill-opacity="1" fill-rule="nonzero"></path></g></g></g></g></svg>