<svg xmlns="http://www.w3.org/2000/svg" xmlns:xlink="http://www.w3.org/1999/xlink" width="2000" zoomAndPan="magnify" viewBox="0 0 1500 1499.999933" height="2000" preserveAspectRatio="xMidYMid meet" version="1.0"><defs><clipPath id="d2d7fa1c20"><path d="M 514.433594 492.1875 L 814.433594 492.1875 L 814.433594 582.1875 L 514.433594 582.1875 Z M 514.433594 492.1875 " clip-rule="nonzero"></path></clipPath><clipPath id="616584fc15"><path d="M 0.433594 0.1875 L 300.433594 0.1875 L 300.433594 90.1875 L 0.433594 90.1875 Z M 0.433594 0.1875 " clip-rule="nonzero"></path></clipPath><clipPath id="94bd485d1b"><rect x="0" width="301" y="0" height="91"></rect></clipPath><clipPath id="7a1e748fd3"><path d="M 514.433594 492.1875 L 604.433594 492.1875 L 604.433594 867.1875 L 514.433594 867.1875 Z M 514.433594 492.1875 " clip-rule="nonzero"></path></clipPath><clipPath id="26c2cec713"><path d="M 0.433594 0.1875 L 90.433594 0.1875 L 90.433594 375.1875 L 0.433594 375.1875 Z M 0.433594 0.1875 " clip-rule="nonzero"></path></clipPath><clipPath id="8ca99d6b2e"><rect x="0" width="91" y="0" height="376"></rect></clipPath><clipPath id="f9cab77d31"><path d="M 514.433594 777.1875 L 814.433594 777.1875 L 814.433594 867.1875 L 514.433594 867.1875 Z M 514.433594 777.1875 " clip-rule="nonzero"></path></clipPath><clipPath id="4baf6ba129"><path d="M 0.433594 0.1875 L 300.433594 0.1875 L 300.433594 90.1875 L 0.433594 90.1875 Z M 0.433594 0.1875 " clip-rule="nonzero"></path></clipPath><clipPath id="33701d35df"><rect x="0" width="301" y="0" height="91"></rect></clipPath><clipPath id="4b5d9a782c"><path d="M 685.566406 917.8125 L 985.566406 917.8125 L 985.566406 1007.8125 L 685.566406 1007.8125 Z M 685.566406 917.8125 " clip-rule="nonzero"></path></clipPath><clipPath id="cba9f523d7"><path d="M 0.566406 0.8125 L 300.566406 0.8125 L 300.566406 90.8125 L 0.566406 90.8125 Z M 0.566406 0.8125 " clip-rule="nonzero"></path></clipPath><clipPath id="0fc5255664"><rect x="0" width="301" y="0" height="91"></rect></clipPath><clipPath id="d7028ca102"><path d="M 895.566406 632.8125 L 985.566406 632.8125 L 985.566406 1007.8125 L 895.566406 1007.8125 Z M 895.566406 632.8125 " clip-rule="nonzero"></path></clipPath><clipPath id="abd0abc87b"><path d="M 0.566406 0.8125 L 90.566406 0.8125 L 90.566406 375.8125 L 0.566406 375.8125 Z M 0.566406 0.8125 " clip-rule="nonzero"></path></clipPath><clipPath id="29e89ad7e3"><rect x="0" width="91" y="0" height="376"></rect></clipPath><clipPath id="1ab29c02e4"><path d="M 685.566406 632.8125 L 985.566406 632.8125 L 985.566406 722.8125 L 685.566406 722.8125 Z M 685.566406 632.8125 " clip-rule="nonzero"></path></clipPath><clipPath id="e2c06057a4"><path d="M 0.566406 0.8125 L 300.566406 0.8125 L 300.566406 90.8125 L 0.566406 90.8125 Z M 0.566406 0.8125 " clip-rule="nonzero"></path></clipPath><clipPath id="2c8e298d2e"><rect x="0" width="301" y="0" height="91"></rect></clipPath></defs><g clip-path="url(#d2d7fa1c20)"><g transform="matrix(1, 0, 0, 1, 514, 492)"><g clip-path="url(#94bd485d1b)"><g clip-path="url(#616584fc15)"><path fill="#1b2a4a" d="M 0.433594 0.1875 L 300.316406 0.1875 L 300.316406 90.1875 L 0.433594 90.1875 Z M 0.433594 0.1875 " fill-opacity="1" fill-rule="nonzero"></path></g></g></g></g><g clip-path="url(#7a1e748fd3)"><g transform="matrix(1, 0, 0, 1, 514, 492)"><g clip-path="url(#8ca99d6b2e)"><g clip-path="url(#26c2cec713)"><path fill="#1b2a4a" d="M 0.433594 375.1875 L 0.433594 0.0703125 L 90.433594 0.0703125 L 90.433594 375.1875 Z M 0.433594 375.1875 " fill-opacity="1" fill-rule="nonzero"></path></g></g></g></g><g clip-path="url(#f9cab77d31)"><g transform="matrix(1, 0, 0, 1, 514, 777)"><g clip-path="url(#33701d35df)"><g clip-path="url(#4baf6ba129)"><path fill="#1b2a4a" d="M 300.433594 90.1875 L 0.550781 90.1875 L 0.550781 0.1875 L 300.433594 0.1875 Z M 300.433594 90.1875 " fill-opacity="1" fill-rule="nonzero"></path></g></g></g></g><g clip-path="url(#4b5d9a782c)"><g transform="matrix(1, 0, 0, 1, 685, 917)"><g clip-path="url(#0fc5255664)"><g clip-path="url(#cba9f523d7)"><path fill="#1b2a4a" d="M 300.566406 90.8125 L 0.683594 90.8125 L 0.683594 0.8125 L 300.566406 0.8125 Z M 300.566406 90.8125 " fill-opacity="1" fill-rule="nonzero"></path></g></g></g></g><g clip-path="url(#d7028ca102)"><g transform="matrix(1, 0, 0, 1, 895, 632)"><g clip-path="url(#29e89ad7e3)"><g clip-path="url(#abd0abc87b)"><path fill="#1b2a4a" d="M 90.566406 0.8125 L 90.566406 375.929688 L 0.566406 375.929688 L 0.566406 0.8125 Z M 90.566406 0.8125 " fill-opacity="1" fill-rule="nonzero"></path></g></g></g></g><g clip-path="url(#1ab29c02e4)"><g transform="matrix(1, 0, 0, 1, 685, 632)"><g clip-path="url(#2c8e298d2e)"><g clip-path="url(#e2c06057a4)"><path fill="#1b2a4a" d="M 0.566406 0.8125 L 300.449219 0.8125 L 300.449219 90.8125 L 0.566406 90.8125 Z M 0.566406 0.8125 " fill-opacity="1" fill-rule="nonzero"></path></g></g></g></g></svg>