<svg xmlns="http://www.w3.org/2000/svg" xmlns:xlink="http://www.w3.org/1999/xlink" width="2000" zoomAndPan="magnify" viewBox="0 0 1500 1499.999933" height="2000" preserveAspectRatio="xMidYMid meet" version="1.0"><defs><g></g><clipPath id="109ee93630"><path d="M 170.796875 644.472656 L 293.589844 644.472656 L 293.589844 681.3125 L 170.796875 681.3125 Z M 170.796875 644.472656 " clip-rule="nonzero"></path></clipPath><clipPath id="b51e948c01"><path d="M 0.796875 0.472656 L 123.589844 0.472656 L 123.589844 37.3125 L 0.796875 37.3125 Z M 0.796875 0.472656 " clip-rule="nonzero"></path></clipPath><clipPath id="a05c2f039c"><rect x="0" width="124" y="0" height="38"></rect></clipPath><clipPath id="9b3a75eff2"><path d="M 170.792969 644.464844 L 207.628906 644.464844 L 207.628906 797.957031 L 170.792969 797.957031 Z M 170.792969 644.464844 " clip-rule="nonzero"></path></clipPath><clipPath id="0028b0c689"><path d="M 0.792969 0.464844 L 37.628906 0.464844 L 37.628906 153.957031 L 0.792969 153.957031 Z M 0.792969 0.464844 " clip-rule="nonzero"></path></clipPath><clipPath id="7046099746"><rect x="0" width="38" y="0" height="154"></rect></clipPath><clipPath id="2f8061ce7e"><path d="M 170.792969 761.121094 L 293.585938 761.121094 L 293.585938 797.960938 L 170.792969 797.960938 Z M 170.792969 761.121094 " clip-rule="nonzero"></path></clipPath><clipPath id="e93f74b39a"><path d="M 0.792969 0.121094 L 123.585938 0.121094 L 123.585938 36.960938 L 0.792969 36.960938 Z M 0.792969 0.121094 " clip-rule="nonzero"></path></clipPath><clipPath id="75ac62324d"><rect x="0" width="124" y="0" height="37"></rect></clipPath><clipPath id="e0af044592"><path d="M 240.839844 818.679688 L 363.632812 818.679688 L 363.632812 855.519531 L 240.839844 855.519531 Z M 240.839844 818.679688 " clip-rule="nonzero"></path></clipPath><clipPath id="3af584eaef"><path d="M 0.839844 0.679688 L 123.632812 0.679688 L 123.632812 37.519531 L 0.839844 37.519531 Z M 0.839844 0.679688 " clip-rule="nonzero"></path></clipPath><clipPath id="b7a28dee96"><rect x="0" width="124" y="0" height="38"></rect></clipPath><clipPath id="69a68978d3"><path d="M 326.789062 702.035156 L 363.628906 702.035156 L 363.628906 855.527344 L 326.789062 855.527344 Z M 326.789062 702.035156 " clip-rule="nonzero"></path></clipPath><clipPath id="60b8f0f60a"><path d="M 0.789062 0.0351562 L 37.628906 0.0351562 L 37.628906 153.527344 L 0.789062 153.527344 Z M 0.789062 0.0351562 " clip-rule="nonzero"></path></clipPath><clipPath id="2fb6c7d679"><rect x="0" width="38" y="0" height="154"></rect></clipPath><clipPath id="7e6e4dbbbb"><path d="M 240.84375 702.035156 L 363.636719 702.035156 L 363.636719 738.871094 L 240.84375 738.871094 Z M 240.84375 702.035156 " clip-rule="nonzero"></path></clipPath><clipPath id="0aff286096"><path d="M 0.84375 0.0351562 L 123.636719 0.0351562 L 123.636719 36.871094 L 0.84375 36.871094 Z M 0.84375 0.0351562 " clip-rule="nonzero"></path></clipPath><clipPath id="630703db15"><rect x="0" width="124" y="0" height="37"></rect></clipPath></defs><g fill="#c8922a" fill-opacity="1"><g transform="translate(389.863623, 792.25304)"><g><path d="M 38.1875 -66.5 C 47.875 -66.5 55.535156 -64.078125 61.171875 -59.234375 C 66.816406 -54.390625 69.640625 -47.46875 69.640625 -38.46875 L 49.59375 -38.46875 C 49.59375 -42.269531 48.59375 -45.28125 46.59375 -47.5 C 44.601562 -49.71875 41.769531 -50.828125 38.09375 -50.828125 C 33.851562 -50.828125 30.734375 -49.492188 28.734375 -46.828125 C 26.742188 -44.171875 25.75 -40.46875 25.75 -35.71875 L 25.75 -29.640625 C 25.75 -24.953125 26.742188 -21.257812 28.734375 -18.5625 C 30.734375 -15.875 33.789062 -14.53125 37.90625 -14.53125 C 41.957031 -14.53125 45.023438 -15.578125 47.109375 -17.671875 C 49.203125 -19.765625 50.25 -22.707031 50.25 -26.5 L 69.640625 -26.5 C 69.640625 -17.570312 66.898438 -10.734375 61.421875 -5.984375 C 55.941406 -1.234375 48.195312 1.140625 38.1875 1.140625 C 27.039062 1.140625 18.601562 -1.707031 12.875 -7.40625 C 7.144531 -13.101562 4.28125 -21.53125 4.28125 -32.6875 C 4.28125 -43.832031 7.144531 -52.253906 12.875 -57.953125 C 18.601562 -63.648438 27.039062 -66.5 38.1875 -66.5 Z M 38.1875 -66.5 "></path></g></g></g><g fill="#c8922a" fill-opacity="1"><g transform="translate(463.767558, 792.25304)"><g><path d="M 39.515625 -66.5 C 50.796875 -66.5 59.503906 -63.613281 65.640625 -57.84375 C 71.785156 -52.082031 74.859375 -43.695312 74.859375 -32.6875 C 74.859375 -21.664062 71.785156 -13.269531 65.640625 -7.5 C 59.503906 -1.738281 50.796875 1.140625 39.515625 1.140625 C 28.242188 1.140625 19.550781 -1.722656 13.4375 -7.453125 C 7.332031 -13.191406 4.28125 -21.601562 4.28125 -32.6875 C 4.28125 -43.769531 7.332031 -52.175781 13.4375 -57.90625 C 19.550781 -63.632812 28.242188 -66.5 39.515625 -66.5 Z M 39.515625 -50.828125 C 35.023438 -50.828125 31.609375 -49.460938 29.265625 -46.734375 C 26.921875 -44.015625 25.75 -40.34375 25.75 -35.71875 L 25.75 -29.640625 C 25.75 -25.015625 26.921875 -21.335938 29.265625 -18.609375 C 31.609375 -15.890625 35.023438 -14.53125 39.515625 -14.53125 C 44.015625 -14.53125 47.453125 -15.890625 49.828125 -18.609375 C 52.203125 -21.335938 53.390625 -25.015625 53.390625 -29.640625 L 53.390625 -35.71875 C 53.390625 -40.34375 52.203125 -44.015625 49.828125 -46.734375 C 47.453125 -49.460938 44.015625 -50.828125 39.515625 -50.828125 Z M 39.515625 -50.828125 "></path></g></g></g><g fill="#c8922a" fill-opacity="1"><g transform="translate(542.896077, 792.25304)"><g><path d="M 53.765625 0 L 26.3125 -31.734375 L 26.3125 0 L 7.03125 0 L 7.03125 -65.359375 L 25.359375 -65.359375 L 52.8125 -33.15625 L 52.8125 -65.359375 L 72.109375 -65.359375 L 72.109375 0 Z M 53.765625 0 "></path></g></g></g><g fill="#c8922a" fill-opacity="1"><g transform="translate(622.024583, 792.25304)"><g><path d="M 44.65625 -48.640625 L 44.65625 0 L 23.65625 0 L 23.65625 -48.640625 L 2.1875 -48.640625 L 2.1875 -65.359375 L 66.03125 -65.359375 L 66.03125 -48.640625 Z M 44.65625 -48.640625 "></path></g></g></g><g fill="#c8922a" fill-opacity="1"><g transform="translate(690.608973, 792.25304)"><g><path d="M 69.0625 -45.3125 C 69.0625 -41.320312 67.984375 -37.710938 65.828125 -34.484375 C 63.679688 -31.253906 60.550781 -28.878906 56.4375 -27.359375 L 70.96875 0 L 47.40625 0 L 35.8125 -23.84375 L 28.03125 -23.84375 L 28.03125 0 L 7.03125 0 L 7.03125 -65.359375 L 47.03125 -65.359375 C 51.71875 -65.359375 55.722656 -64.453125 59.046875 -62.640625 C 62.367188 -60.835938 64.867188 -58.398438 66.546875 -55.328125 C 68.222656 -52.265625 69.0625 -48.925781 69.0625 -45.3125 Z M 47.6875 -44.453125 C 47.6875 -46.171875 47.113281 -47.597656 45.96875 -48.734375 C 44.832031 -49.867188 43.441406 -50.4375 41.796875 -50.4375 L 28.03125 -50.4375 L 28.03125 -38.375 L 41.796875 -38.375 C 43.441406 -38.375 44.832031 -38.957031 45.96875 -40.125 C 47.113281 -41.300781 47.6875 -42.742188 47.6875 -44.453125 Z M 47.6875 -44.453125 "></path></g></g></g><g fill="#c8922a" fill-opacity="1"><g transform="translate(764.512898, 792.25304)"><g><path d="M 50.828125 0 L 48.0625 -9.21875 L 25.171875 -9.21875 L 22.421875 0 L 0.953125 0 L 24.796875 -65.359375 L 49.203125 -65.359375 L 73.0625 0 Z M 29.546875 -23.84375 L 43.703125 -23.84375 L 36.859375 -47.125 L 36.484375 -47.125 Z M 29.546875 -23.84375 "></path></g></g></g><g fill="#c8922a" fill-opacity="1"><g transform="translate(836.706937, 792.25304)"><g><path d="M 38.1875 -66.5 C 47.875 -66.5 55.535156 -64.078125 61.171875 -59.234375 C 66.816406 -54.390625 69.640625 -47.46875 69.640625 -38.46875 L 49.59375 -38.46875 C 49.59375 -42.269531 48.59375 -45.28125 46.59375 -47.5 C 44.601562 -49.71875 41.769531 -50.828125 38.09375 -50.828125 C 33.851562 -50.828125 30.734375 -49.492188 28.734375 -46.828125 C 26.742188 -44.171875 25.75 -40.46875 25.75 -35.71875 L 25.75 -29.640625 C 25.75 -24.953125 26.742188 -21.257812 28.734375 -18.5625 C 30.734375 -15.875 33.789062 -14.53125 37.90625 -14.53125 C 41.957031 -14.53125 45.023438 -15.578125 47.109375 -17.671875 C 49.203125 -19.765625 50.25 -22.707031 50.25 -26.5 L 69.640625 -26.5 C 69.640625 -17.570312 66.898438 -10.734375 61.421875 -5.984375 C 55.941406 -1.234375 48.195312 1.140625 38.1875 1.140625 C 27.039062 1.140625 18.601562 -1.707031 12.875 -7.40625 C 7.144531 -13.101562 4.28125 -21.53125 4.28125 -32.6875 C 4.28125 -43.832031 7.144531 -52.253906 12.875 -57.953125 C 18.601562 -63.648438 27.039062 -66.5 38.1875 -66.5 Z M 38.1875 -66.5 "></path></g></g></g><g fill="#c8922a" fill-opacity="1"><g transform="translate(910.610861, 792.25304)"><g><path d="M 44.65625 -48.640625 L 44.65625 0 L 23.65625 0 L 23.65625 -48.640625 L 2.1875 -48.640625 L 2.1875 -65.359375 L 66.03125 -65.359375 L 66.03125 -48.640625 Z M 44.65625 -48.640625 "></path></g></g></g><g fill="#c8922a" fill-opacity="1"><g transform="translate(975.965409, 792.25304)"><g><path d="M 39.515625 -66.5 C 50.796875 -66.5 59.503906 -63.613281 65.640625 -57.84375 C 71.785156 -52.082031 74.859375 -43.695312 74.859375 -32.6875 C 74.859375 -21.664062 71.785156 -13.269531 65.640625 -7.5 C 59.503906 -1.738281 50.796875 1.140625 39.515625 1.140625 C 28.242188 1.140625 19.550781 -1.722656 13.4375 -7.453125 C 7.332031 -13.191406 4.28125 -21.601562 4.28125 -32.6875 C 4.28125 -43.769531 7.332031 -52.175781 13.4375 -57.90625 C 19.550781 -63.632812 28.242188 -66.5 39.515625 -66.5 Z M 39.515625 -50.828125 C 35.023438 -50.828125 31.609375 -49.460938 29.265625 -46.734375 C 26.921875 -44.015625 25.75 -40.34375 25.75 -35.71875 L 25.75 -29.640625 C 25.75 -25.015625 26.921875 -21.335938 29.265625 -18.609375 C 31.609375 -15.890625 35.023438 -14.53125 39.515625 -14.53125 C 44.015625 -14.53125 47.453125 -15.890625 49.828125 -18.609375 C 52.203125 -21.335938 53.390625 -25.015625 53.390625 -29.640625 L 53.390625 -35.71875 C 53.390625 -40.34375 52.203125 -44.015625 49.828125 -46.734375 C 47.453125 -49.460938 44.015625 -50.828125 39.515625 -50.828125 Z M 39.515625 -50.828125 "></path></g></g></g><g fill="#c8922a" fill-opacity="1"><g transform="translate(1055.093927, 792.25304)"><g><path d="M 69.0625 -45.3125 C 69.0625 -41.320312 67.984375 -37.710938 65.828125 -34.484375 C 63.679688 -31.253906 60.550781 -28.878906 56.4375 -27.359375 L 70.96875 0 L 47.40625 0 L 35.8125 -23.84375 L 28.03125 -23.84375 L 28.03125 0 L 7.03125 0 L 7.03125 -65.359375 L 47.03125 -65.359375 C 51.71875 -65.359375 55.722656 -64.453125 59.046875 -62.640625 C 62.367188 -60.835938 64.867188 -58.398438 66.546875 -55.328125 C 68.222656 -52.265625 69.0625 -48.925781 69.0625 -45.3125 Z M 47.6875 -44.453125 C 47.6875 -46.171875 47.113281 -47.597656 45.96875 -48.734375 C 44.832031 -49.867188 43.441406 -50.4375 41.796875 -50.4375 L 28.03125 -50.4375 L 28.03125 -38.375 L 41.796875 -38.375 C 43.441406 -38.375 44.832031 -38.957031 45.96875 -40.125 C 47.113281 -41.300781 47.6875 -42.742188 47.6875 -44.453125 Z M 47.6875 -44.453125 "></path></g></g></g><g fill="#c8922a" fill-opacity="1"><g transform="translate(1128.997897, 792.25304)"><g><path d="M 34.484375 -66.5 C 42.847656 -66.5 49.71875 -64.800781 55.09375 -61.40625 C 60.476562 -58.019531 63.234375 -53.003906 63.359375 -46.359375 L 63.359375 -45.21875 L 43.703125 -45.21875 L 43.703125 -45.59375 C 43.703125 -47.5 43.003906 -49.082031 41.609375 -50.34375 C 40.210938 -51.613281 38.09375 -52.25 35.25 -52.25 C 32.457031 -52.25 30.316406 -51.835938 28.828125 -51.015625 C 27.335938 -50.191406 26.59375 -49.175781 26.59375 -47.96875 C 26.59375 -46.257812 27.609375 -44.992188 29.640625 -44.171875 C 31.671875 -43.347656 34.929688 -42.492188 39.421875 -41.609375 C 44.679688 -40.535156 49.003906 -39.410156 52.390625 -38.234375 C 55.773438 -37.066406 58.734375 -35.148438 61.265625 -32.484375 C 63.804688 -29.828125 65.109375 -26.21875 65.171875 -21.65625 C 65.171875 -13.925781 62.554688 -8.191406 57.328125 -4.453125 C 52.109375 -0.722656 45.128906 1.140625 36.390625 1.140625 C 26.191406 1.140625 18.253906 -0.566406 12.578125 -3.984375 C 6.910156 -7.410156 4.078125 -13.460938 4.078125 -22.140625 L 23.9375 -22.140625 C 23.9375 -18.835938 24.789062 -16.632812 26.5 -15.53125 C 28.207031 -14.425781 30.867188 -13.875 34.484375 -13.875 C 37.140625 -13.875 39.335938 -14.15625 41.078125 -14.71875 C 42.828125 -15.289062 43.703125 -16.460938 43.703125 -18.234375 C 43.703125 -19.816406 42.734375 -21.003906 40.796875 -21.796875 C 38.867188 -22.585938 35.71875 -23.425781 31.34375 -24.3125 C 26.03125 -25.457031 21.628906 -26.644531 18.140625 -27.875 C 14.660156 -29.113281 11.617188 -31.15625 9.015625 -34 C 6.421875 -36.851562 5.125 -40.71875 5.125 -45.59375 C 5.125 -52.75 7.894531 -58.019531 13.4375 -61.40625 C 18.976562 -64.800781 25.992188 -66.5 34.484375 -66.5 Z M 34.484375 -66.5 "></path></g></g></g><g fill="#c8922a" fill-opacity="1"><g transform="translate(1197.582242, 792.25304)"><g><path d="M 7.03125 -65.359375 L 63.5625 -65.359375 L 63.5625 -49.6875 L 28.03125 -49.6875 L 28.03125 -40.65625 L 58.421875 -40.65625 L 58.421875 -25.65625 L 28.03125 -25.65625 L 28.03125 -15.671875 L 64.21875 -15.671875 L 64.21875 0 L 7.03125 0 Z M 7.03125 -65.359375 "></path></g></g></g><g fill="#c8922a" fill-opacity="1"><g transform="translate(1266.166587, 792.25304)"><g><path d="M 69.0625 -45.3125 C 69.0625 -41.320312 67.984375 -37.710938 65.828125 -34.484375 C 63.679688 -31.253906 60.550781 -28.878906 56.4375 -27.359375 L 70.96875 0 L 47.40625 0 L 35.8125 -23.84375 L 28.03125 -23.84375 L 28.03125 0 L 7.03125 0 L 7.03125 -65.359375 L 47.03125 -65.359375 C 51.71875 -65.359375 55.722656 -64.453125 59.046875 -62.640625 C 62.367188 -60.835938 64.867188 -58.398438 66.546875 -55.328125 C 68.222656 -52.265625 69.0625 -48.925781 69.0625 -45.3125 Z M 47.6875 -44.453125 C 47.6875 -46.171875 47.113281 -47.597656 45.96875 -48.734375 C 44.832031 -49.867188 43.441406 -50.4375 41.796875 -50.4375 L 28.03125 -50.4375 L 28.03125 -38.375 L 41.796875 -38.375 C 43.441406 -38.375 44.832031 -38.957031 45.96875 -40.125 C 47.113281 -41.300781 47.6875 -42.742188 47.6875 -44.453125 Z M 47.6875 -44.453125 "></path></g></g></g><g fill="#c8922a" fill-opacity="1"><g transform="translate(1338.455704, 792.25304)"><g><path d="M 24.796875 0 L 1.609375 -65.359375 L 24.03125 -65.359375 L 37.140625 -21.65625 L 37.53125 -21.65625 L 50.734375 -65.359375 L 72.203125 -65.359375 L 49.109375 0 Z M 24.796875 0 "></path></g></g></g><g fill="#c8922a" fill-opacity="1"><g transform="translate(1412.359628, 792.25304)"><g><path d="M 7.03125 -65.359375 L 63.5625 -65.359375 L 63.5625 -49.6875 L 28.03125 -49.6875 L 28.03125 -40.65625 L 58.421875 -40.65625 L 58.421875 -25.65625 L 28.03125 -25.65625 L 28.03125 -15.671875 L 64.21875 -15.671875 L 64.21875 0 L 7.03125 0 Z M 7.03125 -65.359375 "></path></g></g></g><g clip-path="url(#109ee93630)"><g transform="matrix(1, 0, 0, 1, 170, 644)"><g clip-path="url(#a05c2f039c)"><g clip-path="url(#b51e948c01)"><path fill="#c8922a" d="M 0.796875 0.472656 L 123.539062 0.472656 L 123.539062 37.3125 L 0.796875 37.3125 Z M 0.796875 0.472656 " fill-opacity="1" fill-rule="nonzero"></path></g></g></g></g><g clip-path="url(#9b3a75eff2)"><g transform="matrix(1, 0, 0, 1, 170, 644)"><g clip-path="url(#7046099746)"><g clip-path="url(#0028b0c689)"><path fill="#c8922a" d="M 0.792969 153.957031 L 0.792969 0.417969 L 37.628906 0.417969 L 37.628906 153.957031 Z M 0.792969 153.957031 " fill-opacity="1" fill-rule="nonzero"></path></g></g></g></g><g clip-path="url(#2f8061ce7e)"><g transform="matrix(1, 0, 0, 1, 170, 761)"><g clip-path="url(#75ac62324d)"><g clip-path="url(#e93f74b39a)"><path fill="#c8922a" d="M 123.585938 36.960938 L 0.839844 36.960938 L 0.839844 0.121094 L 123.585938 0.121094 Z M 123.585938 36.960938 " fill-opacity="1" fill-rule="nonzero"></path></g></g></g></g><g clip-path="url(#e0af044592)"><g transform="matrix(1, 0, 0, 1, 240, 818)"><g clip-path="url(#b7a28dee96)"><g clip-path="url(#3af584eaef)"><path fill="#c8922a" d="M 123.632812 37.519531 L 0.886719 37.519531 L 0.886719 0.679688 L 123.632812 0.679688 Z M 123.632812 37.519531 " fill-opacity="1" fill-rule="nonzero"></path></g></g></g></g><g clip-path="url(#69a68978d3)"><g transform="matrix(1, 0, 0, 1, 326, 702)"><g clip-path="url(#2fb6c7d679)"><g clip-path="url(#60b8f0f60a)"><path fill="#c8922a" d="M 37.628906 0.0351562 L 37.628906 153.574219 L 0.789062 153.574219 L 0.789062 0.0351562 Z M 37.628906 0.0351562 " fill-opacity="1" fill-rule="nonzero"></path></g></g></g></g><g clip-path="url(#7e6e4dbbbb)"><g transform="matrix(1, 0, 0, 1, 240, 702)"><g clip-path="url(#630703db15)"><g clip-path="url(#0aff286096)"><path fill="#c8922a" d="M 0.84375 0.0351562 L 123.589844 0.0351562 L 123.589844 36.871094 L 0.84375 36.871094 Z M 0.84375 0.0351562 " fill-opacity="1" fill-rule="nonzero"></path></g></g></g></g></svg>