<svg xmlns="http://www.w3.org/2000/svg" xmlns:xlink="http://www.w3.org/1999/xlink" width="2000" zoomAndPan="magnify" viewBox="0 0 1500 1499.999933" height="2000" preserveAspectRatio="xMidYMid meet" version="1.0"><defs><clipPath id="9f8541e88a"><path d="M 514.433594 492.1875 L 814.433594 492.1875 L 814.433594 582.1875 L 514.433594 582.1875 Z M 514.433594 492.1875 " clip-rule="nonzero"></path></clipPath><clipPath id="a107158389"><path d="M 0.433594 0.1875 L 300.433594 0.1875 L 300.433594 90.1875 L 0.433594 90.1875 Z M 0.433594 0.1875 " clip-rule="nonzero"></path></clipPath><clipPath id="e1bc5e3e10"><rect x="0" width="301" y="0" height="91"></rect></clipPath><clipPath id="4f61f7d0d4"><path d="M 514.433594 492.1875 L 604.433594 492.1875 L 604.433594 867.1875 L 514.433594 867.1875 Z M 514.433594 492.1875 " clip-rule="nonzero"></path></clipPath><clipPath id="c98d18ef16"><path d="M 0.433594 0.1875 L 90.433594 0.1875 L 90.433594 375.1875 L 0.433594 375.1875 Z M 0.433594 0.1875 " clip-rule="nonzero"></path></clipPath><clipPath id="ce0cc12a74"><rect x="0" width="91" y="0" height="376"></rect></clipPath><clipPath id="d188ebb155"><path d="M 514.433594 777.1875 L 814.433594 777.1875 L 814.433594 867.1875 L 514.433594 867.1875 Z M 514.433594 777.1875 " clip-rule="nonzero"></path></clipPath><clipPath id="e806fb62ee"><path d="M 0.433594 0.1875 L 300.433594 0.1875 L 300.433594 90.1875 L 0.433594 90.1875 Z M 0.433594 0.1875 " clip-rule="nonzero"></path></clipPath><clipPath id="697ff736ed"><rect x="0" width="301" y="0" height="91"></rect></clipPath><clipPath id="651298b4a4"><path d="M 685.566406 917.8125 L 985.566406 917.8125 L 985.566406 1007.8125 L 685.566406 1007.8125 Z M 685.566406 917.8125 " clip-rule="nonzero"></path></clipPath><clipPath id="4bd7570d10"><path d="M 0.566406 0.8125 L 300.566406 0.8125 L 300.566406 90.8125 L 0.566406 90.8125 Z M 0.566406 0.8125 " clip-rule="nonzero"></path></clipPath><clipPath id="df81074622"><rect x="0" width="301" y="0" height="91"></rect></clipPath><clipPath id="727d6494af"><path d="M 895.566406 632.8125 L 985.566406 632.8125 L 985.566406 1007.8125 L 895.566406 1007.8125 Z M 895.566406 632.8125 " clip-rule="nonzero"></path></clipPath><clipPath id="66b289b69c"><path d="M 0.566406 0.8125 L 90.566406 0.8125 L 90.566406 375.8125 L 0.566406 375.8125 Z M 0.566406 0.8125 " clip-rule="nonzero"></path></clipPath><clipPath id="63a9d47adf"><rect x="0" width="91" y="0" height="376"></rect></clipPath><clipPath id="3233f4754c"><path d="M 685.566406 632.8125 L 985.566406 632.8125 L 985.566406 722.8125 L 685.566406 722.8125 Z M 685.566406 632.8125 " clip-rule="nonzero"></path></clipPath><clipPath id="cfe02c4fe7"><path d="M 0.566406 0.8125 L 300.566406 0.8125 L 300.566406 90.8125 L 0.566406 90.8125 Z M 0.566406 0.8125 " clip-rule="nonzero"></path></clipPath><clipPath id="2d518dd5e7"><rect x="0" width="301" y="0" height="91"></rect></clipPath></defs><g clip-path="url(#9f8541e88a)"><g transform="matrix(1, 0, 0, 1, 514, 492)"><g clip-path="url(#e1bc5e3e10)"><g clip-path="url(#a107158389)"><path fill="#c8922a" d="M 0.433594 0.1875 L 300.316406 0.1875 L 300.316406 90.1875 L 0.433594 90.1875 Z M 0.433594 0.1875 " fill-opacity="1" fill-rule="nonzero"></path></g></g></g></g><g clip-path="url(#4f61f7d0d4)"><g transform="matrix(1, 0, 0, 1, 514, 492)"><g clip-path="url(#ce0cc12a74)"><g clip-path="url(#c98d18ef16)"><path fill="#c8922a" d="M 0.433594 375.1875 L 0.433594 0.0703125 L 90.433594 0.0703125 L 90.433594 375.1875 Z M 0.433594 375.1875 " fill-opacity="1" fill-rule="nonzero"></path></g></g></g></g><g clip-path="url(#d188ebb155)"><g transform="matrix(1, 0, 0, 1, 514, 777)"><g clip-path="url(#697ff736ed)"><g clip-path="url(#e806fb62ee)"><path fill="#c8922a" d="M 300.433594 90.1875 L 0.550781 90.1875 L 0.550781 0.1875 L 300.433594 0.1875 Z M 300.433594 90.1875 " fill-opacity="1" fill-rule="nonzero"></path></g></g></g></g><g clip-path="url(#651298b4a4)"><g transform="matrix(1, 0, 0, 1, 685, 917)"><g clip-path="url(#df81074622)"><g clip-path="url(#4bd7570d10)"><path fill="#c8922a" d="M 300.566406 90.8125 L 0.683594 90.8125 L 0.683594 0.8125 L 300.566406 0.8125 Z M 300.566406 90.8125 " fill-opacity="1" fill-rule="nonzero"></path></g></g></g></g><g clip-path="url(#727d6494af)"><g transform="matrix(1, 0, 0, 1, 895, 632)"><g clip-path="url(#63a9d47adf)"><g clip-path="url(#66b289b69c)"><path fill="#c8922a" d="M 90.566406 0.8125 L 90.566406 375.929688 L 0.566406 375.929688 L 0.566406 0.8125 Z M 90.566406 0.8125 " fill-opacity="1" fill-rule="nonzero"></path></g></g></g></g><g clip-path="url(#3233f4754c)"><g transform="matrix(1, 0, 0, 1, 685, 632)"><g clip-path="url(#2d518dd5e7)"><g clip-path="url(#cfe02c4fe7)"><path fill="#c8922a" d="M 0.566406 0.8125 L 300.449219 0.8125 L 300.449219 90.8125 L 0.566406 90.8125 Z M 0.566406 0.8125 " fill-opacity="1" fill-rule="nonzero"></path></g></g></g></g></svg>