<svg xmlns="http://www.w3.org/2000/svg" xmlns:xlink="http://www.w3.org/1999/xlink" width="2000" zoomAndPan="magnify" viewBox="0 0 1500 1499.999933" height="2000" preserveAspectRatio="xMidYMid meet" version="1.0"><defs><clipPath id="b2fdbbb64a"><path d="M 514.433594 492.1875 L 814.433594 492.1875 L 814.433594 582.1875 L 514.433594 582.1875 Z M 514.433594 492.1875 " clip-rule="nonzero"></path></clipPath><clipPath id="0f2d89b6cd"><path d="M 0.433594 0.1875 L 300.433594 0.1875 L 300.433594 90.1875 L 0.433594 90.1875 Z M 0.433594 0.1875 " clip-rule="nonzero"></path></clipPath><clipPath id="bfc75d7159"><rect x="0" width="301" y="0" height="91"></rect></clipPath><clipPath id="9dc61d1ca4"><path d="M 514.433594 492.1875 L 604.433594 492.1875 L 604.433594 867.1875 L 514.433594 867.1875 Z M 514.433594 492.1875 " clip-rule="nonzero"></path></clipPath><clipPath id="75d71b665c"><path d="M 0.433594 0.1875 L 90.433594 0.1875 L 90.433594 375.1875 L 0.433594 375.1875 Z M 0.433594 0.1875 " clip-rule="nonzero"></path></clipPath><clipPath id="70aa8f8a69"><rect x="0" width="91" y="0" height="376"></rect></clipPath><clipPath id="478d501eae"><path d="M 514.433594 777.1875 L 814.433594 777.1875 L 814.433594 867.1875 L 514.433594 867.1875 Z M 514.433594 777.1875 " clip-rule="nonzero"></path></clipPath><clipPath id="5f6850cee7"><path d="M 0.433594 0.1875 L 300.433594 0.1875 L 300.433594 90.1875 L 0.433594 90.1875 Z M 0.433594 0.1875 " clip-rule="nonzero"></path></clipPath><clipPath id="affbc45685"><rect x="0" width="301" y="0" height="91"></rect></clipPath><clipPath id="1e38e00287"><path d="M 685.566406 917.8125 L 985.566406 917.8125 L 985.566406 1007.8125 L 685.566406 1007.8125 Z M 685.566406 917.8125 " clip-rule="nonzero"></path></clipPath><clipPath id="da9dde9bb4"><path d="M 0.566406 0.8125 L 300.566406 0.8125 L 300.566406 90.8125 L 0.566406 90.8125 Z M 0.566406 0.8125 " clip-rule="nonzero"></path></clipPath><clipPath id="01a4701697"><rect x="0" width="301" y="0" height="91"></rect></clipPath><clipPath id="c808551b82"><path d="M 895.566406 632.8125 L 985.566406 632.8125 L 985.566406 1007.8125 L 895.566406 1007.8125 Z M 895.566406 632.8125 " clip-rule="nonzero"></path></clipPath><clipPath id="4972dd7709"><path d="M 0.566406 0.8125 L 90.566406 0.8125 L 90.566406 375.8125 L 0.566406 375.8125 Z M 0.566406 0.8125 " clip-rule="nonzero"></path></clipPath><clipPath id="e18e3c2e85"><rect x="0" width="91" y="0" height="376"></rect></clipPath><clipPath id="1a286b72d2"><path d="M 685.566406 632.8125 L 985.566406 632.8125 L 985.566406 722.8125 L 685.566406 722.8125 Z M 685.566406 632.8125 " clip-rule="nonzero"></path></clipPath><clipPath id="d2fa8537d2"><path d="M 0.566406 0.8125 L 300.566406 0.8125 L 300.566406 90.8125 L 0.566406 90.8125 Z M 0.566406 0.8125 " clip-rule="nonzero"></path></clipPath><clipPath id="05caea6466"><rect x="0" width="301" y="0" height="91"></rect></clipPath></defs><g clip-path="url(#b2fdbbb64a)"><g transform="matrix(1, 0, 0, 1, 514, 492)"><g clip-path="url(#bfc75d7159)"><g clip-path="url(#0f2d89b6cd)"><path fill="#000000" d="M 0.433594 0.1875 L 300.316406 0.1875 L 300.316406 90.1875 L 0.433594 90.1875 Z M 0.433594 0.1875 " fill-opacity="1" fill-rule="nonzero"></path></g></g></g></g><g clip-path="url(#9dc61d1ca4)"><g transform="matrix(1, 0, 0, 1, 514, 492)"><g clip-path="url(#70aa8f8a69)"><g clip-path="url(#75d71b665c)"><path fill="#000000" d="M 0.433594 375.1875 L 0.433594 0.0703125 L 90.433594 0.0703125 L 90.433594 375.1875 Z M 0.433594 375.1875 " fill-opacity="1" fill-rule="nonzero"></path></g></g></g></g><g clip-path="url(#478d501eae)"><g transform="matrix(1, 0, 0, 1, 514, 777)"><g clip-path="url(#affbc45685)"><g clip-path="url(#5f6850cee7)"><path fill="#000000" d="M 300.433594 90.1875 L 0.550781 90.1875 L 0.550781 0.1875 L 300.433594 0.1875 Z M 300.433594 90.1875 " fill-opacity="1" fill-rule="nonzero"></path></g></g></g></g><g clip-path="url(#1e38e00287)"><g transform="matrix(1, 0, 0, 1, 685, 917)"><g clip-path="url(#01a4701697)"><g clip-path="url(#da9dde9bb4)"><path fill="#000000" d="M 300.566406 90.8125 L 0.683594 90.8125 L 0.683594 0.8125 L 300.566406 0.8125 Z M 300.566406 90.8125 " fill-opacity="1" fill-rule="nonzero"></path></g></g></g></g><g clip-path="url(#c808551b82)"><g transform="matrix(1, 0, 0, 1, 895, 632)"><g clip-path="url(#e18e3c2e85)"><g clip-path="url(#4972dd7709)"><path fill="#000000" d="M 90.566406 0.8125 L 90.566406 375.929688 L 0.566406 375.929688 L 0.566406 0.8125 Z M 90.566406 0.8125 " fill-opacity="1" fill-rule="nonzero"></path></g></g></g></g><g clip-path="url(#1a286b72d2)"><g transform="matrix(1, 0, 0, 1, 685, 632)"><g clip-path="url(#05caea6466)"><g clip-path="url(#d2fa8537d2)"><path fill="#000000" d="M 0.566406 0.8125 L 300.449219 0.8125 L 300.449219 90.8125 L 0.566406 90.8125 Z M 0.566406 0.8125 " fill-opacity="1" fill-rule="nonzero"></path></g></g></g></g></svg>